<svg width="192" height="40" viewBox="0 0 192 40" fill="none" xmlns="http://www.w3.org/2000/svg">
<path d="M66.8976 11.1978C67.0693 11.099 67.2651 11.0076 67.4866 10.9237C67.7102 10.8385 67.9489 10.7706 68.2014 10.7197C68.4538 10.6689 68.7107 10.6422 68.9729 10.6397C69.3289 10.6422 69.6035 10.6849 69.7975 10.7667C69.9934 10.8501 70.1278 10.9653 70.2017 11.1098C70.2771 11.256 70.3144 11.4221 70.3097 11.6107C69.6591 11.6107 69.065 11.666 68.5269 11.779C67.9901 11.8922 67.5261 12.0645 67.1346 12.2981C66.7414 12.5299 66.4391 12.827 66.2268 13.1856C66.0129 13.5471 65.9042 13.9749 65.9023 14.4682C65.9042 14.7812 65.9613 15.0736 66.0728 15.35C66.1863 15.6292 66.3505 15.8753 66.564 16.0877C66.7786 16.3025 67.0374 16.471 67.3417 16.5932C67.6462 16.717 67.9901 16.7783 68.3719 16.781C68.8056 16.781 69.2041 16.7108 69.5698 16.5664C69.9344 16.4218 70.2463 16.2038 70.4999 15.9038H70.5411L70.691 16.6222H72.9155C72.8846 16.483 72.8589 16.3185 72.8405 16.1312C72.8246 15.9398 72.8108 15.7337 72.8034 15.5093C72.7966 15.2858 72.7926 15.0559 72.7926 14.8142V12.2223C72.7954 11.7745 72.7428 11.3532 72.6334 10.9619C72.524 10.5683 72.3434 10.2235 72.0875 9.9232C71.8356 9.62742 71.4923 9.39199 71.0596 9.2242C70.6274 9.05406 70.0917 8.96771 69.4491 8.96484C68.9729 8.96771 68.5379 9.00776 68.1471 9.07799C67.7585 9.15109 67.4196 9.24019 67.1322 9.34412C66.8461 9.44622 66.6183 9.5456 66.4484 9.64328L66.8976 11.1978ZM70.3905 13.9102C70.3893 14.1273 70.3522 14.3066 70.2841 14.45C70.2165 14.5951 70.1295 14.708 70.0248 14.792C69.92 14.8777 69.8137 14.9405 69.7013 14.9827C69.591 15.0249 69.4903 15.0507 69.4027 15.0623C69.3162 15.0753 69.2551 15.0828 69.2166 15.0798C69.0468 15.0798 68.8951 15.0507 68.7605 14.9897C68.6243 14.9292 68.5173 14.8366 68.4372 14.7103C68.3605 14.5835 68.3193 14.4236 68.3176 14.229C68.3193 13.9565 68.4108 13.7372 68.5872 13.5728C68.7644 13.4095 69.0083 13.2918 69.3203 13.2188C69.6322 13.1456 69.9893 13.1108 70.3905 13.113V13.9102ZM82.5986 16.6222V10.9589H84.9988V16.6222H87.4002V9.12431H80.1955V16.6222H82.5986ZM96.7954 10.9727V16.6222H99.1969V10.9727H101.763V9.12431H94.1903V10.9727H96.7954ZM115.075 14.6813C114.755 14.7869 114.425 14.8657 114.082 14.9136C113.742 14.9621 113.382 14.9868 113.001 14.9868C112.732 14.9868 112.48 14.9581 112.239 14.9028C112 14.848 111.784 14.7652 111.594 14.6538C111.405 14.5435 111.25 14.4083 111.134 14.2471C111.017 14.0856 110.949 13.8966 110.926 13.6842H115.729C115.749 13.5904 115.769 13.4632 115.786 13.301C115.802 13.1388 115.812 12.9469 115.812 12.7276C115.812 12.3279 115.772 11.9453 115.689 11.5746C115.609 11.2045 115.481 10.8636 115.311 10.5462C115.139 10.2321 114.92 9.9552 114.653 9.71821C114.385 9.48057 114.066 9.29782 113.694 9.16658C113.322 9.03287 112.895 8.96771 112.413 8.96484C111.887 8.96771 111.416 9.04549 111.001 9.19793C110.587 9.35154 110.227 9.5616 109.921 9.82668C109.616 10.0922 109.361 10.396 109.161 10.7398C108.961 11.08 108.811 11.4445 108.713 11.8276C108.615 12.2085 108.566 12.5939 108.566 12.9794C108.567 13.7664 108.729 14.4442 109.047 15.0118C109.366 15.5784 109.828 16.0129 110.434 16.3185C111.041 16.6247 111.778 16.7776 112.645 16.781C113.139 16.781 113.618 16.7439 114.085 16.6639C114.552 16.5873 114.99 16.4606 115.402 16.2899L115.075 14.6813ZM110.926 12.0354C110.941 11.887 110.98 11.7271 111.036 11.5614C111.096 11.3965 111.178 11.2395 111.287 11.092C111.397 10.9431 111.532 10.8248 111.701 10.7312C111.869 10.6386 112.07 10.5889 112.304 10.5862C112.552 10.5889 112.756 10.6397 112.918 10.7346C113.08 10.8299 113.207 10.9517 113.298 11.1001C113.389 11.2515 113.45 11.4085 113.486 11.5718C113.521 11.7391 113.536 11.8934 113.532 12.0354H110.926ZM125.261 16.6222V13.6572C125.358 13.6533 125.475 13.6602 125.612 13.6778C125.749 13.6928 125.897 13.7372 126.057 13.8098C126.214 13.8834 126.377 14.0062 126.541 14.1735C126.702 14.3427 126.858 14.5767 127.007 14.8794C127.175 15.2859 127.329 15.6315 127.477 15.9205C127.619 16.2087 127.767 16.4423 127.921 16.6222H130.433C130.332 16.4659 130.237 16.2876 130.139 16.0946C130.043 15.9015 129.952 15.7052 129.864 15.5012C129.776 15.2996 129.693 15.1027 129.614 14.9136C129.541 14.7236 129.469 14.5528 129.409 14.4019C129.274 14.0674 129.121 13.7566 128.946 13.4711C128.772 13.1873 128.567 12.9469 128.328 12.75C128.092 12.5517 127.81 12.4147 127.485 12.3411L130.391 9.12431H127.512L125.533 12.0896H125.261V9.12431H122.887V16.6222H125.261ZM139.746 16.6222C139.802 16.5137 139.883 16.3453 139.994 16.1163C140.103 15.8873 140.227 15.6154 140.367 15.306C140.509 14.9954 140.66 14.6641 140.814 14.3136C140.972 13.9641 141.123 13.6139 141.274 13.2627C141.424 12.9132 141.563 12.5855 141.688 12.2776C141.812 11.9692 141.915 11.7009 141.997 11.477H142.065C142.049 11.8116 142.032 12.1138 142.019 12.381C142.007 12.6471 141.994 12.9018 141.985 13.144C141.976 13.3849 141.97 13.6351 141.964 13.8954C141.958 14.1541 141.955 14.4418 141.955 14.7612V16.6222H144.194V9.12431H141.383L140.018 12.1019C139.868 12.425 139.722 12.7596 139.578 13.1033C139.439 13.449 139.302 13.8194 139.172 14.2158H139.091C139.131 13.7778 139.162 13.2902 139.184 12.7522C139.204 12.2148 139.213 11.6313 139.213 10.999V9.12431H136.99V16.6222H139.746Z" fill="#227F58"/>
<path d="M59.6735 19.8634H55.1082V16.8704C55.103 16.7635 55.1196 16.5882 55.1535 16.3313C55.1933 16.0738 55.2839 15.7984 55.4259 15.5031C55.5728 15.2154 55.8058 14.9636 56.1292 14.7507C56.4475 14.5439 56.8898 14.4307 57.457 14.4251C57.7009 14.4251 57.9725 14.4439 58.268 14.4879C58.5685 14.525 59.1712 14.7558 59.4669 14.8501V9.61968C59.2615 9.55048 58.6251 9.30271 58.1769 9.20151C57.7289 9.09486 57.1617 9.00121 56.4749 8.91263C55.7956 8.83146 54.9948 8.78697 54.0878 8.78125C52.9077 8.78697 51.8976 8.92642 51.0579 9.18838C50.2184 9.45177 49.5206 9.80361 48.9651 10.2421C48.4138 10.6876 47.9727 11.1757 47.643 11.7159C47.3138 12.2557 47.0694 12.8011 46.9114 13.3652C46.7519 13.9232 46.6447 14.4491 46.599 14.9454C46.5475 15.4467 46.5264 15.8732 46.5304 16.2313V19.8634H42.7852V26.1993H46.5304V38.9037H55.1082V26.1993H59.6735V19.8634Z" fill="#E21B3C"/>
<path d="M78.169 21.7547C77.5068 21.1915 76.7524 20.7451 75.8991 20.4058C75.0458 20.0734 74.1398 19.8312 73.1756 19.6862C72.2192 19.5349 71.2434 19.463 70.2624 19.4691C69.3966 19.4691 68.4739 19.511 67.4987 19.6018C66.524 19.6862 65.5367 19.8193 64.5381 19.989C63.5457 20.1647 62.5821 20.3762 61.6583 20.6291V25.5991C62.4766 25.2479 63.255 24.9703 64.0036 24.7697C64.747 24.5649 65.4143 24.4198 66.0068 24.3233C66.5983 24.2325 67.0752 24.1719 67.4341 24.1417C67.7889 24.1178 67.9926 24.1051 68.0327 24.112C68.4866 24.1051 68.9565 24.1359 69.4486 24.1908C69.9361 24.2509 70.3957 24.3592 70.8257 24.5231C71.2548 24.686 71.6034 24.9211 71.8701 25.2295C72.1368 25.5386 72.2769 25.9366 72.2826 26.4328V27.0129H71.0637C70.2922 27.0078 69.4731 27.0192 68.6078 27.0489C67.7425 27.0798 66.8721 27.1586 66.0009 27.2853C65.1368 27.406 64.3053 27.6053 63.5223 27.8837C62.7382 28.1626 62.036 28.5428 61.4258 29.026C60.8113 29.516 60.3288 30.1384 59.9744 30.8945C59.6152 31.65 59.4354 32.5695 59.4297 33.6516C59.4297 34.443 59.5568 35.1865 59.8131 35.8696C60.0678 36.5594 60.4626 37.1629 60.9859 37.6832C61.5077 38.2028 62.1694 38.6084 62.9705 38.8985C63.7718 39.1949 64.7178 39.3387 65.8041 39.3455C66.2975 39.3519 66.82 39.3216 67.3704 39.2554C67.9285 39.1949 68.4866 39.0664 69.0543 38.8797C69.6174 38.6924 70.1635 38.4147 70.6923 38.0453C71.2205 37.677 71.7013 37.1927 72.1436 36.5892H72.2826V38.9093H80.2946V26.7953C80.2883 25.6597 80.0972 24.6801 79.7188 23.8453C79.3417 23.0178 78.8255 22.3218 78.169 21.7547ZM72.2826 31.6922C72.2769 32.4111 72.1552 32.9978 71.9226 33.4511C71.6903 33.8995 71.3876 34.2249 71.0168 34.4311C70.6505 34.6424 70.2567 34.7389 69.844 34.7389C69.2232 34.7274 68.7298 34.5578 68.3578 34.2249C67.9869 33.8926 67.8004 33.4632 67.7889 32.9264C67.7946 32.4414 67.8937 32.0548 68.0911 31.7522C68.2822 31.4564 68.538 31.2268 68.8517 31.0703C69.1653 30.9122 69.5007 30.8042 69.867 30.7432C70.2271 30.6831 70.5811 30.6524 70.9303 30.646C71.2715 30.6408 71.5742 30.6341 71.8289 30.6408H72.2826V31.6922Z" fill="#E21B3C"/>
<path d="M97.1536 19.4688C96.422 19.474 95.7541 19.6074 95.1561 19.8742C94.5576 20.139 94.0304 20.4966 93.565 20.9432C93.1003 21.3967 92.7118 21.9055 92.393 22.4669C92.0736 23.028 91.8241 23.6158 91.6502 24.2193H91.5098V19.9038H83.2891V38.9086H92.0679V32.0178C92.0792 30.9179 92.2875 29.9934 92.706 29.2429C93.1244 28.4943 93.6813 27.9312 94.3886 27.5508C95.0977 27.1694 95.8874 26.9759 96.7707 26.9759C97.0842 26.9759 97.3972 27.0072 97.699 27.0672C98.0069 27.1215 98.3021 27.1878 98.5809 27.2666V19.6485C98.3486 19.5954 98.1104 19.5525 97.8665 19.5166C97.617 19.4863 97.3785 19.4688 97.1536 19.4688Z" fill="#E21B3C"/>
<path d="M132.814 23.3261C132.605 22.619 132.261 21.9721 131.798 21.3912C131.334 20.8167 130.69 20.3519 129.866 20.0014C129.048 19.6571 128.002 19.4747 126.724 19.4695C125.651 19.4747 124.74 19.6204 123.995 19.8923C123.253 20.1651 122.637 20.5217 122.15 20.9568C121.662 21.3976 121.273 21.8688 120.977 22.3713C120.623 21.7311 120.217 21.217 119.746 20.8294C119.282 20.4429 118.787 20.152 118.266 19.9539C117.743 19.7599 117.227 19.6273 116.711 19.5599C116.193 19.4931 115.711 19.4634 115.265 19.4695C114.858 19.4634 114.383 19.4931 113.842 19.5662C113.303 19.6445 112.745 19.8015 112.164 20.0437C111.584 20.292 111.038 20.6603 110.515 21.168C109.994 21.6706 109.54 22.3529 109.168 23.205H109.029V19.9049H100.738V38.9097H109.517V27.9562C109.511 27.6965 109.517 27.4194 109.534 27.1225C109.553 26.8324 109.609 26.5548 109.703 26.2887C109.789 26.0226 109.947 25.8107 110.161 25.6411C110.382 25.4721 110.69 25.3876 111.085 25.382C111.474 25.3876 111.776 25.4721 111.984 25.6354C112.199 25.7987 112.349 26.01 112.436 26.2761C112.53 26.5366 112.582 26.8141 112.6 27.11C112.618 27.4068 112.624 27.6918 112.618 27.9562V38.9097H121.395V27.9562C121.389 27.6918 121.395 27.4068 121.413 27.11C121.43 26.8141 121.482 26.5366 121.575 26.2761C121.662 26.01 121.813 25.7987 122.029 25.6354C122.243 25.4721 122.539 25.3876 122.929 25.382C123.321 25.3876 123.63 25.4721 123.85 25.6411C124.066 25.8107 124.222 26.0226 124.315 26.2887C124.404 26.5548 124.46 26.8324 124.479 27.1225C124.495 27.4194 124.502 27.6965 124.495 27.9562V38.9097H133.273V27.5211C133.285 26.8803 133.261 26.1973 133.208 25.4721C133.157 24.7462 133.024 24.0273 132.814 23.3261Z" fill="#E21B3C"/>
<path d="M154.28 21.7547C153.619 21.1915 152.862 20.7451 152.01 20.4058C151.156 20.0734 150.25 19.8312 149.286 19.6862C148.33 19.5349 147.354 19.463 146.373 19.4691C145.508 19.4691 144.584 19.511 143.608 19.6018C142.633 19.6862 141.646 19.8193 140.649 19.989C139.656 20.1647 138.692 20.3762 137.769 20.6291V25.5991C138.587 25.2479 139.365 24.9703 140.114 24.7697C140.858 24.5649 141.524 24.4198 142.117 24.3233C142.708 24.2325 143.185 24.1719 143.546 24.1417C143.899 24.1178 144.103 24.1051 144.143 24.112C144.596 24.1051 145.066 24.1359 145.561 24.1908C146.047 24.2509 146.505 24.3592 146.935 24.5231C147.365 24.686 147.714 24.9211 147.981 25.2295C148.247 25.5386 148.386 25.9366 148.393 26.4328V27.0129H147.174C146.403 27.0078 145.584 27.0192 144.718 27.0489C143.852 27.0798 142.982 27.1586 142.111 27.2853C141.246 27.406 140.416 27.6053 139.633 27.8837C138.849 28.1626 138.146 28.5428 137.537 29.026C136.921 29.516 136.439 30.1384 136.086 30.8945C135.724 31.65 135.545 32.5695 135.539 33.6516C135.539 34.443 135.667 35.1865 135.923 35.8696C136.178 36.5594 136.573 37.1629 137.096 37.6832C137.619 38.2028 138.279 38.6084 139.082 38.8985C139.881 39.1949 140.828 39.3387 141.914 39.3455C142.406 39.3519 142.929 39.3216 143.481 39.2554C144.038 39.1949 144.596 39.0664 145.165 38.8797C145.728 38.6924 146.274 38.4147 146.803 38.0453C147.331 37.677 147.814 37.1927 148.253 36.5892H148.393V38.9093H156.404V26.7953C156.399 25.6597 156.208 24.6801 155.829 23.8453C155.452 23.0178 154.934 22.3218 154.28 21.7547ZM148.393 31.6922C148.386 32.4111 148.266 32.9978 148.033 33.4511C147.801 33.8995 147.498 34.2249 147.127 34.4311C146.761 34.6424 146.367 34.7389 145.953 34.7389C145.334 34.7274 144.84 34.5578 144.467 34.2249C144.097 33.8926 143.91 33.4632 143.899 32.9264C143.905 32.4414 144.004 32.0548 144.201 31.7522C144.393 31.4564 144.647 31.2268 144.962 31.0703C145.276 30.9122 145.611 30.8042 145.979 30.7432C146.337 30.6831 146.692 30.6524 147.041 30.646C147.382 30.6408 147.685 30.6341 147.941 30.6408H148.393V31.6922Z" fill="#E21B3C"/>
<path d="M179.937 23.4581C179.815 22.9934 179.618 22.5211 179.35 22.0557C179.085 21.5909 178.718 21.162 178.255 20.7687C177.789 20.3818 177.198 20.0672 176.484 19.8308C175.763 19.5957 174.893 19.4739 173.871 19.4694C173.418 19.463 172.923 19.5053 172.377 19.5957C171.833 19.6926 171.286 19.8674 170.73 20.1277C170.179 20.3882 169.663 20.7623 169.185 21.2584C168.703 21.7547 168.303 22.4006 167.984 23.2046H167.844V19.9041H159.555V38.9094H168.332V27.9559C168.326 27.696 168.332 27.4191 168.348 27.1222C168.367 26.8315 168.425 26.5545 168.519 26.2879C168.605 26.0218 168.763 25.8099 168.977 25.6403C169.198 25.4712 169.505 25.3872 169.899 25.3809C170.288 25.3872 170.59 25.4712 170.8 25.6351C171.013 25.7983 171.166 26.0098 171.252 26.2758C171.344 26.5362 171.398 26.8138 171.415 27.1096C171.432 27.406 171.438 27.6908 171.432 27.9559V38.9094H180.209V25.7071C180.216 25.4666 180.199 25.1451 180.17 24.7522C180.134 24.3588 180.059 23.9293 179.937 23.4581Z" fill="#E21B3C"/>
<path d="M183.223 16.6418H192.001V9.03906H183.223V16.6418Z" fill="#E21B3C"/>
<path d="M183.223 38.9074H192.001V19.9023H183.223V38.9074Z" fill="#E21B3C"/>
<path d="M0 0H38.8373V38.8223H22.548V30.6242H30.6321V19.9276H22.548V16.4944C22.5396 16.3255 22.5675 16.0479 22.6237 15.6408C22.6895 15.2341 22.839 14.7978 23.0729 14.3324C23.3168 13.8768 23.7003 13.4793 24.2337 13.1424C24.7578 12.815 25.4882 12.6363 26.4244 12.6267C26.8267 12.6267 27.2759 12.6569 27.7632 12.7255C28.2592 12.7859 30.1211 13.2017 30.6076 13.3503V5.08067C30.271 4.97219 28.3532 4.5267 27.613 4.36854C26.8731 4.19957 25.9378 4.05155 24.8046 3.91225C23.6812 3.7827 22.3615 3.71403 20.8637 3.70388C18.9162 3.71403 17.2496 3.9328 15.8646 4.34798C14.4797 4.76434 13.3275 5.31987 12.41 6.01379C11.502 6.71903 10.7716 7.49113 10.229 8.34374C9.68648 9.19687 9.28356 10.0591 9.02141 10.9512C8.75939 11.8334 8.58185 12.6673 8.5069 13.45C8.42229 14.2428 8.38449 14.9179 8.39348 15.4826V19.9276H0V0ZM8.39348 30.6242H0V38.8229H8.39348V30.6242ZM8.39348 38.8223V30.6242V38.8223Z" fill="#227F58"/>
</svg>
