<svg width="66" height="66" viewBox="0 0 66 66" fill="none" xmlns="http://www.w3.org/2000/svg">
<g filter="url(#filter0_d_5172_2005)">
<rect x="5" y="3" width="56" height="56" rx="4" fill="white"/>
</g>
<path d="M35.4615 35.7656H34.2308V34.5938C34.2308 33.9466 33.6797 33.4219 33 33.4219C32.3203 33.4219 31.7692 33.9466 31.7692 34.5938V35.7656H30.5384C29.8587 35.7656 29.3077 36.2903 29.3077 36.9375C29.3077 37.5847 29.8587 38.1094 30.5384 38.1094H31.7692V39.2812C31.7692 39.9284 32.3203 40.4531 33 40.4531C33.6797 40.4531 34.2308 39.9284 34.2308 39.2812V38.1094H35.4615C36.1412 38.1094 36.6923 37.5847 36.6923 36.9375C36.6923 36.2903 36.1412 35.7656 35.4615 35.7656ZM48.9949 49.722L46.5334 23.9408C46.4758 23.3372 45.9443 22.875 45.3077 22.875H40.3846V18.0312C40.3846 14.1542 37.0719 11 33 11C28.9281 11 25.6154 14.1542 25.6154 18.0312V22.875H20.6923C20.0557 22.875 19.5242 23.3372 19.4666 23.9408L17.005 49.722C16.9738 50.0499 17.0887 50.3752 17.3219 50.6184C17.5551 50.8615 17.885 51 18.2307 51H47.7692C48.115 51 48.4449 50.8615 48.6781 50.6184C48.9112 50.3752 49.0263 50.0499 48.9949 49.722ZM28.0769 18.0312C28.0769 15.4466 30.2854 13.3438 33 13.3438C35.7146 13.3438 37.9231 15.4466 37.9231 18.0312V22.875H28.0769V18.0312ZM19.5784 48.6562L21.8162 25.2188H44.1838L46.4216 48.6562H19.5784Z" fill="#2EAC78"/>
<path d="M35.4625 35.7656H34.2317V34.5938C34.2317 33.9466 33.6806 33.4219 33.0009 33.4219C32.3212 33.4219 31.7701 33.9466 31.7701 34.5938V35.7656H30.5394C29.8597 35.7656 29.3086 36.2903 29.3086 36.9375C29.3086 37.5847 29.8597 38.1094 30.5394 38.1094H31.7701V39.2812C31.7701 39.9284 32.3212 40.4531 33.0009 40.4531C33.6806 40.4531 34.2317 39.9284 34.2317 39.2812V38.1094H35.4625C36.1422 38.1094 36.6932 37.5847 36.6932 36.9375C36.6932 36.2903 36.1422 35.7656 35.4625 35.7656Z" fill="#2EAC78"/>
<defs>
<filter id="filter0_d_5172_2005" x="0" y="0" width="66" height="66" filterUnits="userSpaceOnUse" color-interpolation-filters="sRGB">
<feFlood flood-opacity="0" result="BackgroundImageFix"/>
<feColorMatrix in="SourceAlpha" type="matrix" values="0 0 0 0 0 0 0 0 0 0 0 0 0 0 0 0 0 0 127 0" result="hardAlpha"/>
<feOffset dy="2"/>
<feGaussianBlur stdDeviation="2.5"/>
<feComposite in2="hardAlpha" operator="out"/>
<feColorMatrix type="matrix" values="0 0 0 0 0.188235 0 0 0 0 0.188235 0 0 0 0 0.188235 0 0 0 0.2 0"/>
<feBlend mode="normal" in2="BackgroundImageFix" result="effect1_dropShadow_5172_2005"/>
<feBlend mode="normal" in="SourceGraphic" in2="effect1_dropShadow_5172_2005" result="shape"/>
</filter>
</defs>
</svg>
