<svg width="66" height="66" viewBox="0 0 66 66" fill="none" xmlns="http://www.w3.org/2000/svg">
<g filter="url(#filter0_d_5172_1947)">
<rect x="5" y="3" width="56" height="56" rx="4" fill="white"/>
</g>
<path fill-rule="evenodd" clip-rule="evenodd" d="M43.0297 33.8453C45.5143 32.0595 46.8 29.7869 46.8 27.5C46.8 25.2131 45.5143 22.9405 43.0297 21.1547C40.5486 19.3714 37.0096 18.2 33 18.2C28.9904 18.2 25.4514 19.3714 22.9703 21.1547C20.4857 22.9405 19.2 25.2131 19.2 27.5C19.2 29.7869 20.4857 32.0595 22.9703 33.8453C23.397 34.152 23.8549 34.4405 24.3412 34.7082L24.3402 34.7096C25.7332 35.618 26.3689 36.933 26.7307 38.0837L26.7198 38.0803C26.736 38.1206 26.7515 38.1605 26.7665 38.1998C26.873 38.5524 26.9547 38.8874 27.0261 39.1879C27.13 39.8818 27.1128 40.6799 26.9294 41.309C26.7803 41.8199 26.5337 42.342 26.2781 42.7796C26.7631 42.6169 27.2456 42.4186 27.7145 42.2022L27.7415 42.1897L27.7692 42.1788C28.9695 41.7092 30.01 40.8824 31.1365 39.7767C31.4196 39.4615 31.6567 39.1955 31.8556 38.971L31.8209 38.9692C32.3133 38.4342 32.8354 37.7244 33.3592 36.7969C37.2207 36.7292 40.6229 35.5752 43.0297 33.8453ZM49 27.5C49 33.49 42.6282 38.4104 34.4905 38.9508C34.4595 38.9952 34.4244 39.0422 34.3834 39.0946C34.1861 39.3475 33.7328 39.8789 32.6037 41.1363L32.5831 41.1593L32.561 41.181C31.3696 42.353 30.0998 43.4079 28.5263 44.0302C27.3021 44.5933 25.8265 45.1225 24.3313 45.2056C24.3011 45.2072 24.2597 45.2088 24.212 45.2074L24.2 45.2082C24.1668 45.2103 24.1344 45.2112 24.1102 45.2116C24.0594 45.2125 24.0023 45.2124 23.953 45.2119C23.9025 45.2113 23.8524 45.2103 23.8132 45.2092L23.7864 45.2084L23.7554 45.2072C23.7481 45.2069 23.7312 45.206 23.712 45.2045L23.7115 45.2045C23.7049 45.204 23.6777 45.2018 23.6442 45.1969L23.6431 45.1968C23.6315 45.1951 23.5767 45.1872 23.5102 45.168L23.5083 45.1675C23.4842 45.1606 23.3747 45.1292 23.2542 45.0532C23.1963 45.0168 23.0453 44.9151 22.9288 44.72C22.7817 44.4739 22.7291 44.1375 22.8681 43.8132C22.9719 43.571 23.1265 43.3995 23.2476 43.2877C23.3677 43.1769 23.4925 43.0911 23.5753 43.0359L23.6001 43.0194C23.6202 42.996 23.6388 42.9749 23.654 42.9577L23.6542 42.9575L23.6551 42.9564C23.7135 42.89 23.7831 42.8123 23.85 42.7378L23.8756 42.7092C23.9524 42.6235 24.0236 42.5438 24.08 42.4791C24.1082 42.4467 24.1289 42.4223 24.1428 42.4055L24.1451 42.4026L24.1673 42.3693C24.2791 42.2018 24.3782 42.0533 24.4755 41.8965C24.6997 41.5353 24.9045 41.1086 25.0094 40.749C25.1336 40.3231 25.1104 39.5662 24.9637 39.1002C24.8177 38.6365 24.4184 37.8371 24.1307 37.4055C24.0757 37.3231 23.8729 37.0871 23.6018 36.829C23.585 36.813 23.5682 36.7972 23.5516 36.7817C19.5793 34.6892 17 31.3111 17 27.5C17 21.1487 24.1634 16 33 16C41.8366 16 49 21.1487 49 27.5Z" fill="#2EAC78"/>
<path fill-rule="evenodd" clip-rule="evenodd" d="M37.3268 24.2403C36.8728 23.7226 36.2475 23.4375 35.5662 23.4375C34.553 23.4375 33.8659 24.1742 33.5024 24.564L33.5024 24.564L33.5024 24.564L33.5024 24.564C33.4725 24.5961 33.4447 24.6258 33.4192 24.6526C33.3936 24.6257 33.3657 24.5958 33.3357 24.5636L33.3356 24.5636C32.9721 24.1737 32.2857 23.4375 31.2728 23.4375C30.5915 23.4375 29.9662 23.7226 29.5122 24.2403C29.0786 24.7346 28.8398 25.3919 28.8398 26.0911C28.8398 26.9667 29.2108 27.9595 29.8844 28.8866C30.6757 29.9756 31.8571 30.9274 33.3009 31.6389C33.3383 31.6573 33.3789 31.6665 33.4195 31.6665C33.4601 31.6665 33.5007 31.6573 33.5381 31.6389C34.9819 30.9274 36.1632 29.9756 36.9546 28.8866C37.6282 27.9595 37.9991 26.9667 37.9991 26.0911C37.9991 25.3919 37.7604 24.7346 37.3268 24.2403ZM33.3669 28.4606L33.3687 28.4597L33.3646 28.4594L33.3669 28.4606Z" fill="#2EAC78"/>
<defs>
<filter id="filter0_d_5172_1947" x="0" y="0" width="66" height="66" filterUnits="userSpaceOnUse" color-interpolation-filters="sRGB">
<feFlood flood-opacity="0" result="BackgroundImageFix"/>
<feColorMatrix in="SourceAlpha" type="matrix" values="0 0 0 0 0 0 0 0 0 0 0 0 0 0 0 0 0 0 127 0" result="hardAlpha"/>
<feOffset dy="2"/>
<feGaussianBlur stdDeviation="2.5"/>
<feComposite in2="hardAlpha" operator="out"/>
<feColorMatrix type="matrix" values="0 0 0 0 0.188235 0 0 0 0 0.188235 0 0 0 0 0.188235 0 0 0 0.2 0"/>
<feBlend mode="normal" in2="BackgroundImageFix" result="effect1_dropShadow_5172_1947"/>
<feBlend mode="normal" in="SourceGraphic" in2="effect1_dropShadow_5172_1947" result="shape"/>
</filter>
</defs>
</svg>
