<svg width="30" height="30" viewBox="0 0 30 30" fill="none" xmlns="http://www.w3.org/2000/svg">
<path d="M24.4575 8.19308C24.432 7.88992 24.1778 7.65763 23.875 7.6606H19.4481V5.97493C19.4481 3.22729 17.2313 1 14.497 1C11.7626 1 9.54595 3.22729 9.54595 5.97493V7.6606H5.1191C4.81762 7.66175 4.56597 7.89174 4.53662 8.19308L3.01056 25.8221C2.94116 26.6394 3.21602 27.4488 3.7687 28.053C4.32114 28.6571 5.10044 29.0007 5.91705 29H23.0827C23.8993 29.0007 24.6786 28.6571 25.2311 28.053C25.7838 27.4488 26.0588 26.6394 25.9894 25.8221L24.4575 8.19308ZM10.7109 5.97493C10.7109 3.87385 12.406 2.17057 14.497 2.17057C16.5881 2.17057 18.2832 3.87385 18.2832 5.97493V7.6606H10.7109V5.97493ZM24.3701 27.2617C24.0406 27.6262 23.5726 27.8326 23.0827 27.8294H5.91114C5.42126 27.8297 4.95391 27.6232 4.62262 27.2606C4.29156 26.8978 4.12706 26.4119 4.16961 25.9215L5.64902 8.83117H9.54595L10.7109 8.82523H19.4481H23.3392L24.8186 25.9156C24.8663 26.4081 24.7032 26.8975 24.3701 27.2617Z" fill="#303030" stroke="#303030" stroke-width="0.3"/>
</svg>
