<svg width="102" height="34" viewBox="0 0 102 34" fill="none" xmlns="http://www.w3.org/2000/svg">
<path d="M93.8774 0.0001105H8.12723C7.81466 0.0001105 7.50584 0.0001105 7.1941 0.00181049C6.93314 0.00351049 6.67426 0.00844897 6.4108 0.0126055C5.83843 0.019322 5.26741 0.0695351 4.7027 0.162808C4.13878 0.258112 3.59253 0.437787 3.08242 0.695757C2.57293 0.955908 2.10739 1.29395 1.7027 1.69761C1.29588 2.10015 0.956772 2.56542 0.698403 3.07554C0.43932 3.58464 0.259671 4.13019 0.165661 4.69335C0.0707574 5.2558 0.0196887 5.82473 0.0129137 6.39505C0.00500351 6.65566 0.00416817 6.91713 0 7.17778V26.8248C0.00416817 27.0888 0.00500351 27.3444 0.0129137 27.6084C0.0196908 28.1787 0.0707595 28.7476 0.165661 29.3101C0.259412 29.8735 0.439071 30.4194 0.698403 30.9287C0.956655 31.4372 1.29582 31.9006 1.7027 32.3009C2.10586 32.7063 2.57169 33.0446 3.08242 33.3027C3.59252 33.5614 4.13872 33.7422 4.7027 33.8389C5.26751 33.9315 5.83847 33.9817 6.4108 33.9892C6.67426 33.995 6.93314 33.9983 7.1941 33.9983C7.50583 34 7.81468 34 8.12723 34H93.8774C94.1837 34 94.495 34 94.8013 33.9983C95.0611 33.9983 95.3274 33.995 95.5872 33.9892C96.1584 33.9821 96.7283 33.9319 97.2919 33.8389C97.8577 33.7415 98.4059 33.5608 98.9184 33.3027C99.4287 33.0444 99.8941 32.7062 100.297 32.3009C100.703 31.899 101.043 31.4359 101.304 30.9287C101.562 30.419 101.739 29.8732 101.832 29.3101C101.927 28.7476 101.98 28.1788 101.99 27.6084C101.993 27.3444 101.993 27.0888 101.993 26.8248C102 26.516 102 26.2089 102 25.8951V8.10579C102 7.79452 102 7.48573 101.993 7.17778C101.993 6.91713 101.993 6.65566 101.99 6.39501C101.98 5.82465 101.927 5.25584 101.832 4.69332C101.739 4.13049 101.561 3.58498 101.304 3.0755C100.778 2.05302 99.9436 1.22073 98.9184 0.69568C98.4059 0.438341 97.8577 0.258714 97.2919 0.162732C96.7284 0.0690476 96.1584 0.018817 95.5872 0.0124865C95.3274 0.00833847 95.0611 0.00335749 94.8013 0.00169999C94.495 0 94.1837 0 93.8774 0V0.0001105Z" fill="#A6A6A6"/>
<path d="M7.1963 33.2546C6.9366 33.2546 6.68316 33.2513 6.4255 33.2455C5.89172 33.2386 5.35918 33.1922 4.83227 33.1069C4.34094 33.0225 3.86498 32.8655 3.42009 32.6411C2.97927 32.4186 2.57721 32.1269 2.2293 31.777C1.87636 31.4313 1.58253 31.0304 1.35943 30.59C1.13388 30.1468 0.977789 29.6718 0.896589 29.1814C0.808899 28.6545 0.761455 28.1217 0.754666 27.5877C0.749262 27.4084 0.742188 26.8115 0.742188 26.8115V7.17611C0.742188 7.17611 0.749723 6.58841 0.754709 6.41575C0.761209 5.88253 0.808377 5.35058 0.895805 4.8245C0.977155 4.33279 1.13337 3.85636 1.35904 3.41171C1.58131 2.97168 1.87352 2.57041 2.22433 2.22346C2.57475 1.87321 2.9781 1.57995 3.41967 1.35436C3.86354 1.13072 4.3386 0.974859 4.82894 0.892017C5.35758 0.805798 5.89196 0.759184 6.42759 0.752566L7.19672 0.742188H94.7952L95.5735 0.752982C96.1043 0.759272 96.6338 0.80547 97.1576 0.891184C97.6529 0.975066 98.1329 1.13201 98.5818 1.35685C99.4665 1.81147 100.186 2.53072 100.64 3.41379C100.862 3.85537 101.016 4.32791 101.097 4.81537C101.185 5.34577 101.235 5.8819 101.245 6.41949C101.247 6.66021 101.247 6.91878 101.247 7.17611C101.254 7.49486 101.254 7.79825 101.254 8.10413V25.8934C101.254 26.2022 101.254 26.5036 101.247 26.8074C101.247 27.0838 101.247 27.337 101.244 27.5976C101.234 28.1256 101.185 28.6522 101.098 29.1731C101.019 29.667 100.863 30.1457 100.638 30.5926C100.413 31.0281 100.121 31.4256 99.7722 31.7704C99.424 32.1221 99.0212 32.4156 98.5794 32.6395C98.1317 32.8656 97.6524 33.0232 97.1576 33.1069C96.6307 33.1927 96.0981 33.239 95.5643 33.2455C95.3146 33.2513 95.0532 33.2546 94.7994 33.2546L93.8754 33.2563L7.1963 33.2546Z" fill="black"/>
<path d="M21.1091 17.2574C21.1183 16.548 21.3073 15.8523 21.6585 15.2353C22.0097 14.6182 22.5117 14.0998 23.1178 13.7282C22.7328 13.1798 22.2248 12.7285 21.6342 12.4101C21.0437 12.0918 20.3868 11.9151 19.7158 11.8941C18.2844 11.7443 16.8968 12.7483 16.1674 12.7483C15.4239 12.7483 14.3009 11.909 13.0916 11.9338C12.3094 11.959 11.547 12.1859 10.8789 12.5922C10.2107 12.9986 9.65948 13.5706 9.27892 14.2525C7.6304 17.0987 8.86005 21.2815 10.4392 23.5822C11.2293 24.7087 12.1526 25.9671 13.3609 25.9225C14.5432 25.8735 14.9847 25.1706 16.4119 25.1706C17.8258 25.1706 18.2401 25.9224 19.4728 25.8941C20.7415 25.8735 21.5408 24.7625 22.3032 23.6253C22.8708 22.8226 23.3076 21.9354 23.5974 20.9967C22.8604 20.6858 22.2314 20.1655 21.7889 19.5005C21.3464 18.8356 21.11 18.0554 21.1091 17.2574Z" fill="white"/>
<path d="M18.7783 10.3811C19.4699 9.553 19.8106 8.48866 19.7281 7.41406C18.6715 7.52475 17.6956 8.02842 16.9947 8.82473C16.652 9.21374 16.3895 9.66631 16.2223 10.1566C16.0551 10.6468 15.9863 11.1651 16.0201 11.6819C16.5485 11.6873 17.0713 11.5731 17.5491 11.3478C18.0269 11.1224 18.4472 10.7919 18.7783 10.3811Z" fill="white"/>
<path d="M36.0563 23.0695H32.0216L31.0527 25.9224H29.3438L33.1653 15.3672H34.9409L38.7624 25.9224H37.0244L36.0563 23.0695ZM32.4395 21.753H35.6376L34.061 17.1228H34.0169L32.4395 21.753Z" fill="white"/>
<path d="M47.0155 22.0747C47.0155 24.4662 45.732 26.0026 43.795 26.0026C43.3043 26.0282 42.8163 25.9155 42.3869 25.6774C41.9574 25.4393 41.6039 25.0854 41.3668 24.6562H41.3302V28.4679H39.7461V18.2265H41.2794V19.5064H41.3086C41.5566 19.0794 41.916 18.7273 42.3487 18.4877C42.7814 18.2482 43.2712 18.13 43.7658 18.146C45.7244 18.146 47.0155 19.6899 47.0155 22.0747ZM45.3874 22.0747C45.3874 20.5167 44.5799 19.4923 43.3479 19.4923C42.1376 19.4923 41.3235 20.5382 41.3235 22.0747C41.3235 23.6253 42.1376 24.6637 43.3479 24.6637C44.5799 24.6637 45.3874 23.6469 45.3874 22.0747Z" fill="white"/>
<path d="M55.5077 22.0747C55.5077 24.4661 54.2242 26.0026 52.2871 26.0026C51.7965 26.0282 51.3085 25.9155 50.879 25.6774C50.4496 25.4393 50.0961 25.0854 49.859 24.6562H49.8224V28.4679H48.2383V18.2265H49.7716V19.5064H49.8007C50.0487 19.0793 50.4082 18.7273 50.8409 18.4877C51.2736 18.2482 51.7633 18.13 52.258 18.146C54.2167 18.146 55.5077 19.6899 55.5077 22.0747ZM53.8795 22.0747C53.8795 20.5167 53.0721 19.4923 51.8401 19.4923C50.6298 19.4923 49.8157 20.5382 49.8157 22.0747C49.8157 23.6253 50.6298 24.6637 51.8401 24.6637C53.0721 24.6637 53.8795 23.6469 53.8795 22.0747H53.8795Z" fill="white"/>
<path d="M61.1216 22.9817C61.2389 24.0284 62.2586 24.7157 63.6521 24.7157C64.9873 24.7157 65.9479 24.0284 65.9479 23.0846C65.9479 22.2653 65.3685 21.7748 63.9967 21.4386L62.6249 21.109C60.6812 20.6409 59.7789 19.7344 59.7789 18.2635C59.7789 16.4423 61.3705 15.1914 63.6304 15.1914C65.8671 15.1914 67.4004 16.4423 67.452 18.2635H65.8529C65.7572 17.2101 64.884 16.5743 63.6079 16.5743C62.3319 16.5743 61.4587 17.2176 61.4587 18.154C61.4587 18.9002 62.0164 19.3393 63.3807 19.6754L64.5469 19.961C66.7186 20.4732 67.621 21.3431 67.621 22.887C67.621 24.8618 66.0436 26.0986 63.5347 26.0986C61.1873 26.0986 59.6024 24.8908 59.5 22.9816L61.1216 22.9817Z" fill="white"/>
<path d="M71.0418 16.4062V18.2274H72.5093V19.4784H71.0418V23.7209C71.0418 24.38 71.3356 24.6871 71.9807 24.6871C72.1549 24.6841 72.3289 24.6719 72.5018 24.6505V25.894C72.2118 25.948 71.917 25.9725 71.622 25.967C70.0595 25.967 69.4502 25.3818 69.4502 23.8894V19.4784H68.3281V18.2274H69.4502V16.4062H71.0418Z" fill="white"/>
<path d="M73.3594 22.0757C73.3594 19.6543 74.7894 18.1328 77.0195 18.1328C79.257 18.1328 80.6804 19.6543 80.6804 22.0757C80.6804 24.5036 79.2645 26.0185 77.0195 26.0185C74.7753 26.0185 73.3594 24.5036 73.3594 22.0757ZM79.0664 22.0757C79.0664 20.4147 78.303 19.4344 77.0195 19.4344C75.7359 19.4344 74.9734 20.4222 74.9734 22.0757C74.9734 23.7433 75.7359 24.7161 77.0195 24.7161C78.303 24.7161 79.0663 23.7433 79.0663 22.0757H79.0664Z" fill="white"/>
<path d="M81.9844 18.2264H83.4952V19.5362H83.5319C83.6341 19.1272 83.8744 18.7656 84.2125 18.5124C84.5505 18.2592 84.9656 18.1298 85.3881 18.1459C85.5707 18.1452 85.7527 18.165 85.9309 18.2048V19.6823C85.7004 19.6121 85.46 19.5799 85.2191 19.5869C84.989 19.5776 84.7596 19.618 84.5466 19.7055C84.3336 19.7929 84.1422 19.9253 83.9854 20.0935C83.8285 20.2617 83.7101 20.4618 83.6381 20.68C83.5662 20.8981 83.5424 21.1292 83.5684 21.3574V25.922H81.9844L81.9844 18.2264Z" fill="white"/>
<path d="M93.2349 23.6628C93.0218 25.0598 91.6575 26.0185 89.9119 26.0185C87.6669 26.0185 86.2734 24.5186 86.2734 22.1122C86.2734 19.6983 87.6744 18.1328 89.8453 18.1328C91.9804 18.1328 93.3231 19.5954 93.3231 21.9287V22.47H87.8725V22.5654C87.8473 22.8486 87.8829 23.1339 87.9768 23.4024C88.0707 23.6709 88.2208 23.9163 88.4172 24.1225C88.6136 24.3287 88.8516 24.4908 89.1157 24.5982C89.3797 24.7055 89.6636 24.7556 89.9485 24.7452C90.3229 24.7802 90.6985 24.6937 91.0196 24.4987C91.3407 24.3037 91.5901 24.0105 91.7307 23.6628L93.2349 23.6628ZM87.88 21.366H91.7382C91.7524 21.1113 91.7137 20.8565 91.6245 20.6174C91.5352 20.3784 91.3974 20.1604 91.2197 19.977C91.042 19.7935 90.8281 19.6488 90.5916 19.5517C90.3551 19.4546 90.101 19.4073 89.8453 19.4128C89.5873 19.4113 89.3316 19.4607 89.0929 19.5582C88.8542 19.6557 88.6373 19.7994 88.4545 19.981C88.2718 20.1626 88.127 20.3785 88.0284 20.6162C87.9297 20.8539 87.8793 21.1087 87.88 21.366V21.366Z" fill="white"/>
<path d="M31.3173 9.56576H31.9974C32.1145 9.5803 32.2333 9.5705 32.3464 9.53697C32.4595 9.50344 32.5644 9.44692 32.6544 9.37096C32.7445 9.29501 32.8179 9.20126 32.8698 9.09564C32.9218 8.99002 32.9512 8.87481 32.9563 8.75727C32.9563 8.28953 32.6034 7.98738 32.0049 7.98738C31.8849 7.97067 31.7629 7.97809 31.6458 8.00921C31.5288 8.04032 31.4192 8.0945 31.3236 8.16855C31.2279 8.2426 31.1481 8.33501 31.0888 8.44033C31.0296 8.54565 30.9921 8.66175 30.9785 8.78176H30.2318C30.2447 8.56391 30.3024 8.35102 30.4013 8.15637C30.5002 7.96171 30.6383 7.78944 30.8069 7.65029C30.9755 7.51114 31.171 7.40809 31.3812 7.34756C31.5915 7.28702 31.812 7.27029 32.029 7.29841C33.0304 7.29841 33.7355 7.85747 33.7355 8.66223C33.7378 8.93183 33.6474 9.19407 33.4792 9.40519C33.3111 9.61631 33.0754 9.76352 32.8115 9.82226V9.88202C33.1243 9.89586 33.4189 10.0326 33.6309 10.2625C33.8429 10.4923 33.955 10.7964 33.9427 11.1085C33.9196 11.3328 33.8518 11.5502 33.7433 11.748C33.6347 11.9459 33.4877 12.1201 33.3108 12.2605C33.1339 12.401 32.9306 12.5048 32.713 12.5659C32.4953 12.627 32.2676 12.6441 32.0432 12.6163C31.8183 12.6469 31.5896 12.632 31.3706 12.5725C31.1516 12.513 30.9469 12.4102 30.7686 12.2702C30.5904 12.1301 30.4422 11.9557 30.3329 11.7573C30.2237 11.559 30.1556 11.3407 30.1328 11.1155H30.8911C30.9369 11.6007 31.3839 11.9137 32.0432 11.9137C32.7024 11.9137 33.1328 11.5621 33.1328 11.0666C33.1328 10.564 32.7274 10.2543 32.019 10.2543H31.3173V9.56576Z" fill="white"/>
<path d="M34.8047 11.4127C34.8047 10.7237 35.3198 10.3265 36.2319 10.2701L37.2713 10.2103V9.87995C37.2713 9.4757 37.0042 9.24743 36.4857 9.24743C36.063 9.24743 35.7709 9.40224 35.686 9.67285H34.9528C35.0302 9.01543 35.651 8.59375 36.5215 8.59375C37.4835 8.59375 38.0261 9.07145 38.0261 9.87995V12.4951H37.2963V11.9572H37.2363C37.1147 12.1502 36.944 12.3074 36.7415 12.413C36.539 12.5186 36.312 12.5687 36.0838 12.5582C35.9227 12.5749 35.7599 12.5577 35.6058 12.5078C35.4518 12.4579 35.3099 12.3764 35.1894 12.2685C35.0689 12.1606 34.9724 12.0286 34.9062 11.8812C34.8399 11.7338 34.8053 11.5742 34.8047 11.4127ZM37.2713 11.0856V10.7656L36.3342 10.8254C35.8058 10.8607 35.5661 11.04 35.5661 11.3774C35.5661 11.7219 35.8657 11.9223 36.2777 11.9223C36.3984 11.9345 36.5203 11.9224 36.6362 11.8866C36.7521 11.8508 36.8596 11.7922 36.9523 11.7141C37.045 11.636 37.121 11.5402 37.1758 11.4322C37.2306 11.3242 37.2631 11.2064 37.2713 11.0856Z" fill="white"/>
<path d="M40.0346 9.30381V12.4954H39.2773V8.66797H41.8039V9.30377L40.0346 9.30381Z" fill="white"/>
<path d="M46.3959 10.5775C46.3959 11.7936 45.7793 12.556 44.8106 12.556C44.5728 12.5722 44.3353 12.5203 44.1261 12.4064C43.9169 12.2925 43.7447 12.1214 43.6297 11.9131H43.5698V13.7654H42.8125V8.66544H43.5415V9.29799H43.5981C43.7151 9.08246 43.8896 8.9034 44.1022 8.78057C44.3149 8.65774 44.5574 8.59593 44.8031 8.60197C45.7792 8.60194 46.3959 9.36104 46.3959 10.5775ZM45.617 10.5775C45.617 9.76903 45.2333 9.28053 44.5917 9.28053C43.9543 9.28053 43.5557 9.7794 43.5557 10.5808C43.5557 11.3786 43.9543 11.8778 44.5884 11.8778C45.2333 11.8778 45.617 11.3893 45.617 10.5775Z" fill="white"/>
<path d="M47.4068 13.8663V13.216C47.4887 13.2263 47.5713 13.2311 47.6539 13.2301C47.8153 13.242 47.9753 13.1941 48.1034 13.0955C48.2315 12.9969 48.3186 12.8546 48.3479 12.6959L48.4045 12.5096L47.0156 8.66797H47.8403L48.8024 11.7081H48.8623L49.821 8.66797H50.624L49.1935 12.6536C48.8656 13.5849 48.5028 13.8838 47.7205 13.8838C47.6573 13.8837 47.4775 13.8767 47.4068 13.8663Z" fill="white"/>
<path d="M51.2148 11.4098H51.9688C52.0429 11.7472 52.3599 11.9232 52.8035 11.9232C53.3078 11.9232 53.6174 11.7015 53.6174 11.3571C53.6174 10.9881 53.3394 10.8121 52.8035 10.8121H52.2293V10.2253H52.7935C53.2512 10.2253 53.4842 10.0497 53.4842 9.72972C53.4842 9.44873 53.2587 9.23417 52.7935 9.23417C52.3699 9.23417 52.0603 9.41347 52.0112 9.71562H51.2814C51.336 9.36843 51.525 9.05646 51.8077 8.84682C52.0905 8.63718 52.4445 8.54662 52.7935 8.5946C53.7056 8.5946 54.2274 9.0059 54.2274 9.65253C54.2316 9.8326 54.1738 10.0087 54.0635 10.1513C53.9532 10.2939 53.7972 10.3945 53.6215 10.4361V10.4959C53.8307 10.5228 54.0227 10.6254 54.161 10.7841C54.2994 10.9429 54.3745 11.1467 54.3722 11.3571C54.3722 12.0847 53.7513 12.5661 52.8035 12.5661C51.9655 12.5661 51.2848 12.183 51.2148 11.4098Z" fill="white"/>
<path d="M55.4648 12.4954V8.66797H56.2155V11.3006H56.2754L58.0438 8.66798H58.7944V12.4955H58.0438V9.84877H57.9872L56.2155 12.4955L55.4648 12.4954Z" fill="white"/>
<path d="M62.9288 9.30377H61.7204V12.4954H60.9623V9.30377H59.7539V8.66797H62.9288V9.30377Z" fill="white"/>
<path d="M67.0111 11.4617C66.9079 11.8115 66.6848 12.114 66.3807 12.3164C66.0766 12.5188 65.7109 12.6082 65.3475 12.569C65.0947 12.5757 64.8435 12.5274 64.6113 12.4275C64.379 12.3276 64.1714 12.1785 64.0028 11.9905C63.8341 11.8026 63.7085 11.5802 63.6346 11.339C63.5607 11.0977 63.5404 10.8433 63.575 10.5935C63.5413 10.3428 63.562 10.0879 63.6357 9.8459C63.7094 9.60393 63.8344 9.38058 64.0021 9.19097C64.1699 9.00136 64.3765 8.84991 64.6081 8.74689C64.8396 8.64386 65.0907 8.59166 65.3442 8.59381C66.4119 8.59381 67.0568 9.32141 67.0568 10.5233V10.7869H64.3472V10.8292C64.3352 10.9697 64.3528 11.1111 64.3989 11.2444C64.445 11.3777 64.5185 11.5 64.6147 11.6032C64.711 11.7065 64.8278 11.7885 64.9577 11.8441C65.0877 11.8996 65.2278 11.9274 65.3692 11.9257C65.5502 11.9473 65.7336 11.9147 65.896 11.8321C66.0584 11.7495 66.1925 11.6205 66.2812 11.4617L67.0111 11.4617ZM64.3472 10.2282H66.2845C66.2941 10.0998 66.2767 9.97088 66.2333 9.84961C66.1899 9.72835 66.1216 9.61747 66.0328 9.5241C65.9439 9.43073 65.8364 9.35693 65.7173 9.30743C65.5981 9.25794 65.4699 9.23385 65.3408 9.23672C65.2098 9.23494 65.0798 9.25937 64.9584 9.30858C64.837 9.35778 64.7268 9.43076 64.6341 9.52319C64.5415 9.61563 64.4684 9.72564 64.4191 9.84674C64.3698 9.96784 64.3454 10.0976 64.3472 10.2282H64.3472Z" fill="white"/>
<path d="M70.2227 8.66797H71.9528C72.7034 8.66797 73.1436 9.04731 73.1436 9.64121C73.1448 9.82967 73.081 10.0128 72.963 10.16C72.845 10.3071 72.6799 10.4094 72.4954 10.4497V10.5095C72.7195 10.5236 72.9296 10.623 73.0823 10.7872C73.235 10.9514 73.3186 11.1679 73.3159 11.3918C73.3159 12.0596 72.8124 12.4954 71.9702 12.4954H70.2227V8.66797ZM70.9733 9.24778V10.2389H71.7239C72.1816 10.2389 72.4005 10.0633 72.4005 9.73959C72.4005 9.44118 72.2099 9.24777 71.808 9.24777L70.9733 9.24778ZM70.9733 10.7942V11.9156H71.8713C72.319 11.9156 72.5586 11.7185 72.5586 11.3566C72.5586 10.9735 72.2873 10.7942 71.7764 10.7942L70.9733 10.7942Z" fill="white"/>
</svg>
