<svg width="66" height="66" viewBox="0 0 66 66" fill="none" xmlns="http://www.w3.org/2000/svg">
<g filter="url(#filter0_d_5172_1991)">
<rect x="5" y="3" width="56" height="56" rx="4" fill="white"/>
</g>
<line x1="30.9883" y1="12" x2="30.9883" y2="17.4085" stroke="#2EAC78" stroke-width="2" stroke-linecap="round"/>
<path d="M40.5547 14.8906L36.7292 18.7535" stroke="#2EAC78" stroke-width="2" stroke-linecap="round"/>
<line x1="44.0312" y1="24.6445" x2="38.6945" y2="24.6445" stroke="#2EAC78" stroke-width="2" stroke-linecap="round"/>
<path d="M21.3164 14.8906L25.1419 18.7535" stroke="#2EAC78" stroke-width="2" stroke-linecap="round"/>
<path d="M21.3164 34.3164L25.1419 30.4535" stroke="#2EAC78" stroke-width="2" stroke-linecap="round"/>
<line x1="22.8359" y1="24.6445" x2="17.4992" y2="24.6445" stroke="#2EAC78" stroke-width="2" stroke-linecap="round"/>
<path fill-rule="evenodd" clip-rule="evenodd" d="M27.5982 21.8546C27.6188 21.8411 27.6394 21.8276 27.6606 21.8169L27.7279 21.8021L27.7952 21.7872L27.8177 21.7822L27.8625 21.7723L27.885 21.7673L27.9299 21.7574L27.9523 21.7524C27.9676 21.755 27.9862 21.7598 28.0021 21.7653L28.0245 21.7603C28.0663 21.763 28.1064 21.772 28.1466 21.781L28.1466 21.781L28.169 21.776C28.1889 21.7865 28.2061 21.7976 28.2238 21.8115L28.2462 21.8066C28.286 21.8276 28.3202 21.8498 28.3557 21.8777C28.4052 21.9025 28.4496 21.9314 28.4925 21.9665L49.119 34.346C49.3797 34.4909 49.5282 34.7827 49.496 35.0817C49.4611 35.3813 49.2533 35.6297 48.9688 35.7135L42.755 37.9676L49.2309 46.6856C49.4669 47.0146 49.3995 47.4763 49.079 47.7199L45.2897 50.8424C45.1343 50.9661 44.9342 51.0193 44.7371 50.9914C44.54 50.9635 44.3633 50.8536 44.2459 50.692L37.9199 41.7979L33.7889 46.9326C33.6245 47.1775 33.3311 47.3019 33.0455 47.2459C32.7572 47.1905 32.5294 46.9669 32.4638 46.6776L27.282 22.7822C27.2712 22.7459 27.2626 22.7061 27.2574 22.6685L27.2524 22.6458L27.2475 22.6231L27.2327 22.5549C27.2316 22.5224 27.2332 22.4892 27.2354 22.4589L27.2256 22.4135L27.2431 22.3858C27.2456 22.3703 27.2503 22.3514 27.2557 22.3353L27.2507 22.3126L27.2683 22.2849C27.2811 22.2493 27.2968 22.2131 27.3158 22.1791C27.3184 22.1636 27.3231 22.1447 27.3284 22.1286C27.3388 22.1085 27.3497 22.0912 27.3634 22.0733C27.3822 22.0512 27.4015 22.0321 27.4209 22.0129L27.4384 21.9852L27.4559 21.9575C27.4681 21.9459 27.4831 21.9336 27.4959 21.9248L27.5183 21.9199C27.5427 21.8966 27.5704 21.8756 27.5982 21.8546ZM38.6134 39.2442L38.5096 39.0984C38.498 39.082 38.4858 39.0662 38.473 39.051L38.3639 38.901C38.2552 38.7515 38.0837 38.6605 37.8991 38.6542C37.7144 38.6479 37.5371 38.7271 37.4185 38.8688L34.155 42.7689L30.2103 25.8046L45.0527 34.7441L40.1143 36.8547C39.9463 36.9265 39.8201 37.0709 39.7716 37.247C39.7231 37.4232 39.7575 37.6118 39.865 37.7595L39.8727 37.7702C39.897 37.855 39.9363 37.9359 39.9899 38.0086L42.5572 41.4579L46.5092 46.8868L45.0357 48.0771L38.6134 39.2442Z" fill="#2EAC78"/>
<defs>
<filter id="filter0_d_5172_1991" x="0" y="0" width="66" height="66" filterUnits="userSpaceOnUse" color-interpolation-filters="sRGB">
<feFlood flood-opacity="0" result="BackgroundImageFix"/>
<feColorMatrix in="SourceAlpha" type="matrix" values="0 0 0 0 0 0 0 0 0 0 0 0 0 0 0 0 0 0 127 0" result="hardAlpha"/>
<feOffset dy="2"/>
<feGaussianBlur stdDeviation="2.5"/>
<feComposite in2="hardAlpha" operator="out"/>
<feColorMatrix type="matrix" values="0 0 0 0 0.188235 0 0 0 0 0.188235 0 0 0 0 0.188235 0 0 0 0.2 0"/>
<feBlend mode="normal" in2="BackgroundImageFix" result="effect1_dropShadow_5172_1991"/>
<feBlend mode="normal" in="SourceGraphic" in2="effect1_dropShadow_5172_1991" result="shape"/>
</filter>
</defs>
</svg>
