<svg width="18" height="18" viewBox="0 0 18 18" fill="none" xmlns="http://www.w3.org/2000/svg">
<g clip-path="url(#clip0_5172_2091)">
<path d="M0.257031 1.50164C-0.0804688 1.16414 -0.0804688 0.602426 0.257031 0.253125C0.606332 -0.084375 1.15624 -0.084375 1.50555 0.253125L8.99742 7.75758L16.5019 0.253125C16.8394 -0.084375 17.4011 -0.084375 17.7378 0.253125C18.0871 0.602426 18.0871 1.16493 17.7378 1.50164L10.2459 8.9943L17.7378 16.4988C18.0871 16.8363 18.0871 17.398 17.7378 17.7473C17.4003 18.0848 16.8386 18.0848 16.5019 17.7473L8.99742 10.2428L1.50555 17.7473C1.15624 18.0848 0.606332 18.0848 0.257031 17.7473C-0.0804688 17.398 -0.0804688 16.8355 0.257031 16.4988L7.7489 8.9943L0.257031 1.50164Z" fill="white"/>
</g>
<defs>
<clipPath id="clip0_5172_2091">
<rect width="18" height="18" fill="white"/>
</clipPath>
</defs>
</svg>
