<svg width="66" height="66" viewBox="0 0 66 66" fill="none" xmlns="http://www.w3.org/2000/svg">
<g filter="url(#filter0_d_5172_1941)">
<rect x="5" y="3" width="56" height="56" rx="4" fill="white"/>
</g>
<path d="M34.2727 26.2344V25.0625H35.5455C36.2483 25.0625 36.8182 24.5378 36.8182 23.8906C36.8182 23.2434 36.2483 22.7188 35.5455 22.7188H34.2727V21.5469C34.2727 20.8997 33.7029 20.375 33 20.375C32.2971 20.375 31.7273 20.8997 31.7273 21.5469V22.7188H30.4545C29.7517 22.7188 29.1818 23.2434 29.1818 23.8906C29.1818 24.5378 29.7517 25.0625 30.4545 25.0625H31.7273V26.2344C31.7273 26.8816 32.2971 27.4062 33 27.4062C33.7029 27.4062 34.2727 26.8816 34.2727 26.2344ZM43.0675 40.9713C41.2654 40.2198 38.9296 39.6903 36.3703 39.442L37.5699 36.0755C42.9952 34.3403 47 29.5886 47 23.8906C47 16.7827 40.7196 11 33 11C25.2804 11 19 16.7827 19 23.8906C19 29.5838 22.9997 34.3387 28.4301 36.0756L29.6298 39.442C27.0704 39.6903 24.7346 40.2198 22.9325 40.9713C19.6823 42.3266 19 43.9866 19 45.1406C19 46.9044 20.608 48.4679 23.5278 49.5433C26.0784 50.4827 29.4423 51 33 51C36.5577 51 39.9216 50.4827 42.4722 49.5433C45.392 48.4679 47 46.9044 47 45.1406C47 43.9866 46.3177 42.3266 43.0675 40.9713ZM21.5455 23.8906C21.5455 18.0751 26.684 13.3438 33 13.3438C39.316 13.3438 44.4545 18.0751 44.4545 23.8906C44.4545 28.5468 41.0627 32.7109 36.2063 34.0171C35.8036 34.1255 35.4847 34.4095 35.354 34.7766L33 41.3819L30.6461 34.7766C30.5154 34.4096 30.1964 34.1255 29.7937 34.0171C24.9373 32.7109 21.5455 28.5468 21.5455 23.8906ZM41.5268 47.3672C39.2698 48.1984 36.2416 48.6562 33 48.6562C29.7584 48.6562 26.7302 48.1984 24.4732 47.3672C22.6946 46.7121 21.5455 45.8381 21.5455 45.1406C21.5455 43.9774 24.7032 42.1677 30.4428 41.7234L31.7907 45.5059C31.9622 45.9872 32.45 46.3125 33 46.3125C33.55 46.3125 34.0378 45.9872 34.2093 45.506L35.5572 41.7234C41.2968 42.1677 44.4545 43.9774 44.4545 45.1406C44.4545 45.8381 43.3054 46.7121 41.5268 47.3672Z" fill="#2EAC78"/>
<path d="M34.2745 26.2344V25.0625H35.5472C36.2501 25.0625 36.82 24.5378 36.82 23.8906C36.82 23.2434 36.2501 22.7188 35.5472 22.7188H34.2745V21.5469C34.2745 20.8997 33.7047 20.375 33.0018 20.375C32.2989 20.375 31.729 20.8997 31.729 21.5469V22.7188H30.4563C29.7534 22.7188 29.1836 23.2434 29.1836 23.8906C29.1836 24.5378 29.7534 25.0625 30.4563 25.0625H31.729V26.2344C31.729 26.8816 32.2989 27.4062 33.0018 27.4062C33.7047 27.4062 34.2745 26.8816 34.2745 26.2344Z" fill="#2EAC78"/>
<defs>
<filter id="filter0_d_5172_1941" x="0" y="0" width="66" height="66" filterUnits="userSpaceOnUse" color-interpolation-filters="sRGB">
<feFlood flood-opacity="0" result="BackgroundImageFix"/>
<feColorMatrix in="SourceAlpha" type="matrix" values="0 0 0 0 0 0 0 0 0 0 0 0 0 0 0 0 0 0 127 0" result="hardAlpha"/>
<feOffset dy="2"/>
<feGaussianBlur stdDeviation="2.5"/>
<feComposite in2="hardAlpha" operator="out"/>
<feColorMatrix type="matrix" values="0 0 0 0 0.188235 0 0 0 0 0.188235 0 0 0 0 0.188235 0 0 0 0.2 0"/>
<feBlend mode="normal" in2="BackgroundImageFix" result="effect1_dropShadow_5172_1941"/>
<feBlend mode="normal" in="SourceGraphic" in2="effect1_dropShadow_5172_1941" result="shape"/>
</filter>
</defs>
</svg>
